<svg width="131" height="194" viewBox="0 0 131 194" fill="none" xmlns="http://www.w3.org/2000/svg">
<path d="M58.04 130.6C40.89 128.5 26.94 121.2 16.2 108.8C5.46 96.3 0.0939941 81.98 0.0939941 65.85C0.0939941 47.91 6.46999 32.55 19.21 19.76C31.96 6.98 47.34 0.584 65.36 0.584C83.22 0.584 98.6 7 111.4 19.82C124.2 32.65 130.6 47.99 130.6 65.85C130.6 81.98 125.2 96.3 114.5 108.8C103.7 121.2 89.71 128.5 72.56 130.6V155.1H96.8V169.6H72.56V193.8H58.04V169.6H33.97V155.1H58.04V130.6ZM65.36 116.6C79.29 116.6 91.23 111.6 101.2 101.7C111.1 91.82 116.1 79.86 116.1 65.85C116.1 51.85 111.2 39.89 101.2 29.97C91.33 20.06 79.37 15.1 65.36 15.1C51.36 15.1 39.4 20.08 29.48 30.03C19.57 39.98 14.61 51.92 14.61 65.85C14.61 79.86 19.57 91.82 29.48 101.7C39.4 111.6 51.36 116.6 65.36 116.6Z" fill="black"/>
</svg>
