<svg width="158" height="158" viewBox="0 0 158 158" fill="none" xmlns="http://www.w3.org/2000/svg">
<path d="M157.7 45.2H143.2V25.14L116.6 51.69C126.1 63.65 130.9 77.3 130.9 92.5C130.9 110.5 124.5 125.8 111.7 138.6C98.9 151.4 83.5 157.8 65.6 157.8C47.7 157.8 32.3 151.4 19.5 138.6C6.7 125.8 0.300003 110.5 0.300003 92.5C0.300003 74.67 6.7 59.34 19.5 46.56C32.3 33.77 47.7 27.38 65.6 27.38C80.9 27.38 94.5 32.1 106.4 41.54L133 14.98H112.9V0.470001H157.7V45.2ZM65.6 143.4C79.5 143.4 91.5 138.4 101.4 128.5C111.4 118.5 116.4 106.5 116.4 92.5C116.4 78.5 111.4 66.56 101.5 56.65C91.6 46.73 79.6 41.78 65.6 41.78C51.7 41.78 39.7 46.75 29.8 56.71C19.8 66.66 14.9 78.6 14.9 92.5C14.9 106.5 19.8 118.5 29.8 128.5C39.7 138.4 51.7 143.4 65.6 143.4Z" fill="black"/>
</svg>
