<svg width="20" height="20" viewBox="0 0 20 20" fill="none" xmlns="http://www.w3.org/2000/svg">
<path d="M10 12.5C11.7259 12.5 13.125 11.1009 13.125 9.375C13.125 7.64911 11.7259 6.25 10 6.25C8.27411 6.25 6.875 7.64911 6.875 9.375C6.875 11.1009 8.27411 12.5 10 12.5Z" stroke="black" stroke-width="2" stroke-linecap="round" stroke-linejoin="round"/>
<path d="M16.25 3.125H3.75C3.40482 3.125 3.125 3.40482 3.125 3.75V16.25C3.125 16.5952 3.40482 16.875 3.75 16.875H16.25C16.5952 16.875 16.875 16.5952 16.875 16.25V3.75C16.875 3.40482 16.5952 3.125 16.25 3.125Z" stroke="black" stroke-width="2" stroke-linecap="round" stroke-linejoin="round"/>
<path d="M4.5144 16.875C4.79796 15.6322 5.49513 14.5225 6.49172 13.7277C7.48832 12.9329 8.72528 12.5 10 12.5C11.2748 12.5 12.5117 12.9329 13.5083 13.7277C14.5049 14.5225 15.2021 15.6322 15.4856 16.875" stroke="black" stroke-width="2" stroke-linecap="round" stroke-linejoin="round"/>
</svg>
